# xmcd
#
# Track frame offsets: 
#        182
#        15505
#        28135
#        42795
#        58355
#        75217
#        96527
#        112752
#        126532
#        142825
#        162360
#        175842
#        193280
#
# Disc length: 2821 seconds
#
# Revision: 3
# Processed by: cddbd v1.5PL3 Copyright (c) Steve Scherf et al.
# Submitted via: ExactAudioCopy v0.95a3
#
DISCID=ac0b030d
DTITLE=Trisha Yearwood - Thinkin' About You
DYEAR=1995
DGENRE=Country
TTITLE0=Thinkin' About You
TTITLE1=XXX's And OOO's (An American Girl)
TTITLE2=You Can Sleep While I Drive
TTITLE3=The Restless Kind
TTITLE4=Two Days From Knowing
TTITLE5=On A Bus To St. Cloud
TTITLE6=Fairytale
TTITLE7=Those Words We Said
TTITLE8=O Mexico
TTITLE9=Jackie's House
TTITLE10=I Wanna Go Too Far
TTITLE11=Bartender Blues
TTITLE12=Till I Get It Right
EXTD=
EXTT0=
EXTT1=
EXTT2=
EXTT3=
EXTT4=
EXTT5=
EXTT6=
EXTT7=
EXTT8=
EXTT9=
EXTT10=
EXTT11=
EXTT12=
PLAYORDER=
